<mxfile host="65bd71144e" border="50" scale="3" compressed="false" locked="false">
    <diagram name="Blank" id="YmL12bMKpDGza6XwsDPr">
        <mxGraphModel dx="752" dy="1447" grid="1" gridSize="10" guides="1" tooltips="1" connect="1" arrows="1" fold="1" page="0" pageScale="1" pageWidth="827" pageHeight="1169" background="none" math="1" shadow="0">
            <root>
                <mxCell id="X5NqExCQtvZxIxQ7pmgY-0"/>
                <mxCell id="1" parent="X5NqExCQtvZxIxQ7pmgY-0"/>
                <mxCell id="2" value="&lt;span style=&quot;font-size: 18px;&quot;&gt;完成初始关卡&lt;/span&gt;" style="strokeWidth=2;html=1;shape=mxgraph.flowchart.terminator;whiteSpace=wrap;" parent="1" vertex="1">
                    <mxGeometry x="150" y="-460" width="120" height="50" as="geometry"/>
                </mxCell>
            </root>
        </mxGraphModel>
    </diagram>
</mxfile>